<svg width="50" height="50" viewBox="0 0 512 512" xmlns="http://www.w3.org/2000/svg">
  <defs>
    <linearGradient id="paint0_linear_14_2" x1="172.562" y1="478.188" x2="196" y2="143.031" gradientUnits="userSpaceOnUse">
      <stop stop-color="#F1D69A"/>
      <stop offset="0.4" stop-color="#FC5710"/>
      <stop offset="0.72" stop-color="#FD4F22"/>
      <stop offset="1" stop-color="#FD5B2A"/>
    </linearGradient>
    <linearGradient id="paint1_linear_14_2" x1="346" y1="40.375" x2="316" y2="410.687" gradientUnits="userSpaceOnUse">
      <stop stop-color="#F1D69A"/>
      <stop offset="0.4" stop-color="#FC5710"/>
      <stop offset="0.72129" stop-color="#FD4F22"/>
      <stop offset="1" stop-color="#FD5B2A"/>
    </linearGradient>
  </defs>
  <circle cx="256" cy="256" r="256" fill="black"/>
  <path d="M173.841 473.5C143.258 461.947 115.16 443.964 91.5977 420.402C47.9955 376.8 23.5 317.663 23.5 256C23.5 194.337 47.9955 135.2 91.5977 91.5977C135.2 47.9955 194.337 23.5 256 23.5C285.837 23.5 314.452 35.3526 335.55 56.4505C356.647 77.5483 368.5 106.163 368.5 136C368.5 165.837 356.647 194.452 335.55 215.549C314.452 236.647 285.837 248.5 256 248.5C222.185 248.5 189.755 261.933 165.844 285.844C141.933 309.755 128.5 342.185 128.5 376C128.5 409.815 141.933 442.245 165.844 466.156C168.414 468.726 171.083 471.175 173.841 473.5Z" fill="url(#paint0_linear_14_2)" stroke="black" stroke-width="15"/>
  <path d="M488.5 256C488.5 384.406 384.406 488.5 256 488.5C226.163 488.5 197.548 476.647 176.45 455.549C155.353 434.452 143.5 405.837 143.5 376C143.5 346.163 155.353 317.548 176.45 296.45C197.548 275.353 226.163 263.5 256 263.5C289.815 263.5 322.245 250.067 346.156 226.156C370.067 202.245 383.5 169.815 383.5 136C383.5 102.185 370.067 69.7548 346.156 45.8439C343.541 43.2287 340.824 40.7389 338.014 38.3782C425.951 71.535 488.5 156.463 488.5 256Z" fill="url(#paint1_linear_14_2)" stroke="black" stroke-width="15"/>
</svg>